<svg width="35" height="35" viewBox="0 0 35 35" fill="none" xmlns="http://www.w3.org/2000/svg">
<path d="M17.4998 0.838623C13.4432 0.838532 9.519 2.28196 6.42937 4.91062C3.33974 7.53927 1.28633 11.1816 0.636601 15.1858C-0.0131262 19.19 0.783232 23.2947 2.88317 26.7654C4.9831 30.2361 8.24957 32.8463 12.098 34.1289C12.9522 34.2792 13.2716 33.7668 13.2716 33.3175C13.2716 32.9126 13.2511 31.5664 13.2511 30.1365C8.9581 30.9258 7.84769 29.0893 7.50602 28.1292C7.12677 27.1945 6.52581 26.3661 5.75498 25.7154C5.15706 25.3959 4.30289 24.605 5.73277 24.5845C6.27927 24.6434 6.80348 24.8334 7.26088 25.1383C7.71829 25.4431 8.09539 25.8538 8.36019 26.3355C8.59377 26.7552 8.90787 27.1247 9.2845 27.4228C9.66114 27.7209 10.0929 27.9417 10.555 28.0726C11.0172 28.2035 11.5006 28.242 11.9776 28.1857C12.4546 28.1295 12.9158 27.9797 13.3349 27.7449C13.4082 26.8758 13.7957 26.0632 14.4248 25.4591C10.6237 25.032 6.65185 23.5595 6.65185 17.0251C6.62904 15.3272 7.25537 13.6847 8.40289 12.4331C7.88171 10.9573 7.94281 9.33831 8.57373 7.906C8.57373 7.906 10.0036 7.45842 13.2716 9.65704C16.067 8.88846 19.018 8.88846 21.8133 9.65704C25.0796 7.43621 26.5112 7.906 26.5112 7.906C27.1421 9.33831 27.2032 10.9573 26.6821 12.4331C27.8341 13.6819 28.4612 15.3263 28.4331 17.0251C28.4331 23.58 24.439 25.032 20.6397 25.4591C21.0469 25.8726 21.3605 26.3688 21.5591 26.9141C21.7578 27.4594 21.8369 28.041 21.7911 28.6195C21.7911 30.9053 21.7706 32.7418 21.7706 33.3175C21.7706 33.7668 22.0901 34.2997 22.9442 34.1289C26.7856 32.8356 30.0423 30.2192 32.1331 26.7468C34.2238 23.2744 35.0125 19.172 34.3583 15.1719C33.7041 11.1718 31.6496 7.53432 28.5616 4.90886C25.4736 2.28341 21.553 0.840827 17.4998 0.838623Z" fill="white"/>
</svg>
