<svg width="42" height="41" viewBox="0 0 42 41" fill="none" xmlns="http://www.w3.org/2000/svg">
<path fill-rule="evenodd" clip-rule="evenodd" d="M14.8475 2.13541C13.3663 2.13431 11.9233 2.60473 10.7273 3.47854C9.53139 4.35235 8.64465 5.58418 8.19555 6.99561C7.74645 8.40704 7.7583 9.92479 8.2294 11.329C8.70049 12.7333 9.60637 13.9511 10.8158 14.8061C9.90541 15.4504 9.16293 16.3038 8.65075 17.2946C8.13856 18.2854 7.87162 19.3846 7.87236 20.5C7.87236 22.8507 9.03573 24.9314 10.8192 26.1939C9.84219 26.8855 9.05958 27.8169 8.54671 28.8985C8.03383 29.9801 7.80795 31.1755 7.89079 32.3697C7.97363 33.5639 8.36242 34.7167 9.01973 35.7171C9.67705 36.7176 10.5808 37.532 11.644 38.0821C12.7071 38.6321 13.894 38.8993 15.0903 38.858C16.2867 38.8166 17.4522 38.468 18.4749 37.8458C19.4975 37.2235 20.3428 36.3486 20.9294 35.3051C21.516 34.2617 21.8242 33.0848 21.8243 31.8877V25.9017C22.55 26.4896 23.3863 26.9258 24.2837 27.1844C25.1811 27.443 26.1213 27.5188 27.0485 27.4072C27.9757 27.2956 28.8711 26.999 29.6815 26.5348C30.4919 26.0707 31.2009 25.4486 31.7664 24.7053C32.3318 23.962 32.7423 23.1128 32.9734 22.2079C33.2044 21.303 33.2514 20.361 33.1116 19.4376C32.9718 18.5142 32.6479 17.6283 32.1592 16.8324C31.6706 16.0365 31.0271 15.3469 30.2669 14.8044C31.4763 13.9494 32.3822 12.7316 32.8533 11.3273C33.3244 9.92308 33.3363 8.40533 32.8872 6.9939C32.4381 5.58247 31.5513 4.35065 30.3554 3.47684C29.1594 2.60303 27.7164 2.1326 26.2352 2.1337L14.8475 2.13541ZM19.2601 24.9126H14.8475C14.268 24.9126 13.6942 24.7985 13.1588 24.5767C12.6235 24.355 12.137 24.0299 11.7273 23.6202C11.3175 23.2104 10.9925 22.724 10.7707 22.1886C10.549 21.6533 10.4349 21.0795 10.4349 20.5C10.4349 19.9205 10.549 19.3467 10.7707 18.8114C10.9925 18.276 11.3175 17.7895 11.7273 17.3798C12.137 16.97 12.6235 16.645 13.1588 16.4233C13.6942 16.2015 14.268 16.0874 14.8475 16.0874H19.2601V24.9126ZM14.8475 13.5249H19.2601V4.69791H14.8475C13.677 4.69791 12.5544 5.1629 11.7267 5.99059C10.899 6.81827 10.434 7.94086 10.434 9.11139C10.434 10.2819 10.899 11.4045 11.7267 12.2322C12.5544 13.0599 13.677 13.5249 14.8475 13.5249ZM30.6496 9.11053C30.65 10.2802 30.186 11.4023 29.3596 12.23C28.5331 13.0578 27.4118 13.5235 26.2421 13.5249H21.8226V4.69791H26.2369C26.8164 4.69791 27.3902 4.81204 27.9256 5.0338C28.4609 5.25555 28.9474 5.58059 29.3571 5.99034C29.7669 6.40009 30.0919 6.88653 30.3137 7.42189C30.5354 7.95726 30.6496 8.53106 30.6496 9.11053ZM21.8226 20.4949C21.824 19.3263 22.2888 18.2061 23.115 17.3798C23.9413 16.5535 25.0616 16.0887 26.2301 16.0874H26.2404C27.1127 16.0884 27.9651 16.3479 28.6899 16.8332C29.4148 17.3184 29.9796 18.0076 30.3129 18.8137C30.6463 19.6198 30.7332 20.5066 30.5628 21.3621C30.3924 22.2176 29.9722 23.0034 29.3554 23.6202C28.7386 24.237 27.9528 24.6572 27.0973 24.8276C26.2419 24.998 25.3551 24.911 24.549 24.5777C23.7429 24.2444 23.0537 23.6796 22.5684 22.9547C22.0831 22.2298 21.8236 21.3774 21.8226 20.5051V20.4949ZM14.8475 27.4751C13.9748 27.4751 13.1218 27.7339 12.3961 28.2187C11.6705 28.7034 11.1049 29.3925 10.7709 30.1987C10.4369 31.0049 10.3494 31.8921 10.5195 32.748C10.6896 33.6039 11.1097 34.3902 11.7267 35.0073C12.3436 35.6245 13.1297 36.0449 13.9856 36.2154C14.8414 36.3858 15.7286 36.2987 16.5349 35.965C17.3413 35.6312 18.0305 35.0659 18.5156 34.3405C19.0007 33.6151 19.2598 32.7621 19.2601 31.8895V27.4751H14.8475Z" fill="white"/>
</svg>
