<svg width="51" height="49" viewBox="0 0 51 49" fill="none" xmlns="http://www.w3.org/2000/svg">
<path d="M23.3376 3.08984C23.9178 1.30506 26.382 1.24956 27.0798 2.92285L27.1423 3.08984L31.0242 15.0381C31.5597 16.6862 33.096 17.8027 34.8289 17.8027H47.3914C49.2681 17.8027 50.0832 20.1287 48.7078 21.3096L48.5671 21.4209L38.4031 28.8047C37.0888 29.7597 36.4912 31.4067 36.863 32.9668L36.95 33.2773L40.8328 45.2256C41.4126 47.0106 39.4512 48.5045 37.9031 47.5605L37.7546 47.4619L27.5916 40.0771C26.2771 39.1221 24.5259 39.0626 23.157 39.8984L22.8884 40.0771L12.7253 47.4619C11.2069 48.5651 9.18042 47.1614 9.59937 45.3975L9.64722 45.2256L13.53 33.2773C14.0321 31.7323 13.5475 30.0486 12.3298 29.0049L12.0769 28.8047L1.91284 21.4209C0.345413 20.2821 1.15118 17.8027 3.08862 17.8027H15.6511C17.2758 17.8027 18.7272 16.8215 19.3435 15.3408L19.4558 15.0381L23.3376 3.08984Z" stroke="#B1B1B1" stroke-width="2"/>
</svg>
