<svg width="24" height="24" viewBox="0 0 24 24" fill="none" xmlns="http://www.w3.org/2000/svg">
<path d="M7.82509 13L12.7251 17.9C12.9251 18.1 13.0211 18.3334 13.0131 18.6C13.0051 18.8667 12.9008 19.1 12.7001 19.3C12.5001 19.4834 12.2668 19.5794 12.0001 19.588C11.7334 19.5967 11.5001 19.5007 11.3001 19.3L4.70009 12.7C4.60009 12.6 4.52909 12.4917 4.48709 12.375C4.44509 12.2584 4.42475 12.1334 4.42609 12C4.42742 11.8667 4.44842 11.7417 4.48909 11.625C4.52975 11.5084 4.60042 11.4 4.70109 11.3L11.3011 4.70005C11.4844 4.51672 11.7138 4.42505 11.9891 4.42505C12.2644 4.42505 12.5018 4.51672 12.7011 4.70005C12.9011 4.90005 13.0011 5.13772 13.0011 5.41305C13.0011 5.68838 12.9011 5.92572 12.7011 6.12505L7.82509 11H19.0001C19.2834 11 19.5211 11.096 19.7131 11.288C19.9051 11.48 20.0008 11.7174 20.0001 12C19.9994 12.2827 19.9034 12.5204 19.7121 12.713C19.5208 12.9057 19.2834 13.0014 19.0001 13H7.82509Z" fill="black"/>
</svg>
