<svg width="33" height="35" viewBox="0 0 33 35" fill="none" xmlns="http://www.w3.org/2000/svg">
<path fill-rule="evenodd" clip-rule="evenodd" d="M5.84819 6.40607C6.91077 7.27049 7.30881 7.20386 9.30415 7.07232L28.118 5.9414C28.5161 5.9414 28.1846 5.54336 28.0514 5.47674L24.9269 3.21832C24.3289 2.75365 23.5311 2.22236 22.0022 2.3539L3.78623 3.68299C3.11998 3.74961 2.98844 4.08103 3.25323 4.34924L5.84819 6.40607ZM6.97569 10.7914V30.5858C6.97569 31.6484 7.50869 32.0464 8.70452 31.9815L29.3805 30.7857C30.5763 30.7191 30.7113 29.9879 30.7113 29.1235V9.46057C30.7113 8.59957 30.3799 8.1332 29.647 8.19982L8.03998 9.46228C7.24219 9.5289 6.97569 9.92695 6.97569 10.7914ZM27.3886 11.8522C27.5218 12.4502 27.3886 13.0481 26.7906 13.1164L25.793 13.3146V27.9294C24.9286 28.394 24.1308 28.6588 23.4662 28.6588C22.4019 28.6588 22.1354 28.3274 21.3394 27.3314L14.8221 17.1019V26.9983L16.884 27.4647C16.884 27.4647 16.884 28.6605 15.2218 28.6605L10.6349 28.9253C10.5017 28.6588 10.6349 27.996 11.0996 27.8627L12.2954 27.5313V14.4455L10.6349 14.3105C10.5017 13.7126 10.8331 12.8499 11.7659 12.7833L16.6859 12.4519L23.4679 22.8146V13.6477L21.7374 13.4495C21.6041 12.7167 22.1354 12.1854 22.8017 12.1204L27.3886 11.8522ZM2.25727 1.88924L21.2027 0.495238C23.5311 0.295363 24.1291 0.428613 25.5931 1.4912L31.6406 5.74153C32.6383 6.4727 32.9714 6.67257 32.9714 7.46865V30.7857C32.9714 32.2463 32.4384 33.109 30.578 33.2423L8.57469 34.5714C7.17556 34.6397 6.51102 34.4398 5.77985 33.5088L1.32623 27.7295C0.528437 26.6652 0.195312 25.8691 0.195312 24.9381V4.21428C0.195312 3.01845 0.728312 2.02249 2.25556 1.89095" fill="white"/>
</svg>
