<svg width="25" height="25" viewBox="0 0 25 25" fill="none" xmlns="http://www.w3.org/2000/svg">
<path fill-rule="evenodd" clip-rule="evenodd" d="M14.3022 6.39567C14.3022 5.63357 14.5692 4.89555 15.0566 4.30971C15.544 3.72386 16.2212 3.32717 16.9705 3.1885C17.7199 3.04982 18.4942 3.17791 19.159 3.55053C19.8237 3.92315 20.3371 4.51679 20.6099 5.22839C20.8826 5.94 20.8977 6.72466 20.6523 7.44618C20.4069 8.16771 19.9167 8.78054 19.2666 9.17833C18.6166 9.57611 17.8478 9.73373 17.0937 9.62382C16.3395 9.51392 15.6477 9.14343 15.1382 8.57666L12.4113 10.0641L9.36015 11.8075C9.78714 12.5581 9.89903 13.4475 9.67128 14.2805L15.1382 17.2625C15.6731 16.6682 16.4076 16.2911 17.2022 16.2027C17.9968 16.1143 18.7962 16.3209 19.4485 16.7831C20.1009 17.2453 20.5608 17.931 20.7408 18.71C20.9209 19.489 20.8086 20.307 20.4252 21.0086C20.0419 21.7102 19.4142 22.2467 18.6615 22.516C17.9087 22.7853 17.0832 22.7687 16.3418 22.4695C15.6004 22.1702 14.9947 21.6091 14.6398 20.8927C14.2849 20.1762 14.2055 19.3544 14.4166 18.5833L8.94965 15.6024C8.533 16.0658 7.99233 16.4002 7.39161 16.5659C6.79088 16.7317 6.15525 16.7219 5.55991 16.5377C4.96458 16.3535 4.43446 16.0026 4.03229 15.5266C3.63012 15.0506 3.37273 14.4693 3.29056 13.8516C3.2084 13.2338 3.30491 12.6055 3.56867 12.0409C3.83243 11.4762 4.2524 10.999 4.77889 10.6656C5.30539 10.3322 5.91636 10.1566 6.53953 10.1596C7.16269 10.1625 7.77197 10.344 8.29526 10.6824L11.6776 8.74929L14.4166 7.25482C14.341 6.97469 14.3025 6.68583 14.3022 6.39567ZM17.5641 4.63925C17.0983 4.63925 16.6515 4.8243 16.3221 5.15369C15.9927 5.48309 15.8077 5.92984 15.8077 6.39567C15.8077 6.86151 15.9927 7.30826 16.3221 7.63766C16.6515 7.96705 17.0983 8.1521 17.5641 8.1521C18.0299 8.1521 18.4767 7.96705 18.806 7.63766C19.1354 7.30826 19.3205 6.86151 19.3205 6.39567C19.3205 5.92984 19.1354 5.48309 18.806 5.15369C18.4767 4.8243 18.0299 4.63925 17.5641 4.63925ZM6.5238 11.665C6.05797 11.665 5.61122 11.85 5.28183 12.1794C4.95244 12.5088 4.76739 12.9556 4.76739 13.4214C4.76739 13.8872 4.95244 14.334 5.28183 14.6634C5.61122 14.9928 6.05797 15.1778 6.5238 15.1778C6.98963 15.1778 7.43638 14.9928 7.76577 14.6634C8.09516 14.334 8.28021 13.8872 8.28021 13.4214C8.28021 12.9556 8.09516 12.5088 7.76577 12.1794C7.43638 11.85 6.98963 11.665 6.5238 11.665ZM15.8077 19.4434C15.8077 18.9776 15.9927 18.5308 16.3221 18.2015C16.6515 17.8721 17.0983 17.687 17.5641 17.687C18.0299 17.687 18.4767 17.8721 18.806 18.2015C19.1354 18.5308 19.3205 18.9776 19.3205 19.4434C19.3205 19.9093 19.1354 20.356 18.806 20.6854C18.4767 21.0148 18.0299 21.1999 17.5641 21.1999C17.0983 21.1999 16.6515 21.0148 16.3221 20.6854C15.9927 20.356 15.8077 19.9093 15.8077 19.4434Z" fill="#888888"/>
</svg>
